<svg width="192" height="192" viewBox="0 0 192 192" fill="none" xmlns="http://www.w3.org/2000/svg">
<rect width="192" height="192" fill="white"/>
<path d="M131.355 138.426L117.214 152.569L95.9996 131.355L53.5739 173.782L39.4313 159.639L95.9996 103.071L131.355 138.426ZM152.569 74.7867L131.355 95.9996L173.782 138.426L159.639 152.569L103.071 95.9996L138.426 60.6451L152.569 74.7867ZM88.9293 95.9996L53.5739 131.355L39.4313 117.214L60.6451 95.9996L18.2184 53.5739L32.36 39.4313L88.9293 95.9996ZM152.569 32.36L95.9996 88.9293L60.6451 53.5739L74.7867 39.4313L95.9996 60.6451L138.426 18.2184L152.569 32.36Z" fill="black"/>
</svg>
