<svg width="388" height="72" viewBox="0 0 388 72" fill="none" xmlns="http://www.w3.org/2000/svg">
<path d="M54 0V45C54 59.9117 41.9117 72 27 72C12.0883 72 0 59.9117 0 45V40H16V45C16 51.0751 20.9249 56 27 56C33.0751 56 38 51.0751 38 45V16H16V0H54ZM98 0C117.882 0 134 16.1177 134 36C134 55.8823 117.882 72 98 72C78.1178 72 62 55.8823 62 36C62 16.1177 78.1178 0 98 0ZM190 16H158V28H182V44H158V56H190V72H142V0H190V16ZM220 0C237.673 0 252 14.3269 252 32V40C252 57.6731 237.673 72 220 72H198V0H220ZM296 0C315.882 0 332 16.1177 332 36C332 55.8823 315.882 72 296 72C276.118 72 260 55.8823 260 36C260 16.1177 276.118 0 296 0ZM388 16H356V28H380V44H356V56H388V72H340V0H388V16ZM98 16C86.9543 16 78 24.9543 78 36C78 47.0457 86.9543 56 98 56C109.046 56 118 47.0457 118 36C118 24.9543 109.046 16 98 16ZM214 56H220C228.837 56 236 48.8366 236 40V32C236 23.1634 228.837 16 220 16H214V56ZM296 16C284.954 16 276 24.9543 276 36C276 47.0457 284.954 56 296 56C307.046 56 316 47.0457 316 36C316 24.9543 307.046 16 296 16Z" fill="#000066"/>
</svg>
