<svg width="388" height="72" viewBox="0 0 388 72" fill="none" xmlns="http://www.w3.org/2000/svg">
<path fill-rule="evenodd" clip-rule="evenodd" d="M38 45V16H16V0H54V45C54 59.9117 41.9117 72 27 72C12.0883 72 0 59.9117 0 45V40H16V45C16 51.0751 20.9249 56 27 56C33.0751 56 38 51.0751 38 45ZM142 0H190V16H158V28H182V44H158V56H190V72H142V0ZM214 16H220C228.837 16 236 23.1634 236 32V40C236 48.8366 228.837 56 220 56H214V16ZM198 72V0H220C237.673 0 252 14.3269 252 32V40C252 57.6731 237.673 72 220 72H198ZM296 56C307.046 56 316 47.0457 316 36C316 24.9543 307.046 16 296 16C284.954 16 276 24.9543 276 36C276 47.0457 284.954 56 296 56ZM296 72C315.882 72 332 55.8823 332 36C332 16.1177 315.882 0 296 0C276.118 0 260 16.1177 260 36C260 55.8823 276.118 72 296 72ZM340 0H388V16H356V28H380V44H356V56H388V72H340V0Z" fill="#000066"/>
<path d="M98 0C117.882 0 134 16.1177 134 36C134 55.8823 117.882 72 98 72C78.1177 72 62 55.8823 62 36C62 16.1177 78.1177 0 98 0ZM98 8C82.536 8 70 20.536 70 36C70 51.464 82.536 64 98 64C113.464 64 126 51.464 126 36C126 20.536 113.464 8 98 8ZM118.023 45.1113C116.936 47.5009 115.427 49.6864 113.557 51.5566C110.826 54.2872 107.424 56.2505 103.694 57.25L102.658 53.3867C105.71 52.5689 108.493 50.9618 110.728 48.7275C112.35 47.1053 113.638 45.1925 114.537 43.0986L118.023 45.1113ZM94 27L89 32L94 37L91 40L86 35L81 40L78 37L83 32L78 27L81 24L86 29L91 24L94 27ZM119.192 34.1211H100.808V29.8789H119.192V34.1211Z" fill="#000066"/>
</svg>
