<svg width="190" height="160" viewBox="0 0 190 160" fill="none" xmlns="http://www.w3.org/2000/svg">
<path fill-rule="evenodd" clip-rule="evenodd" d="M142 0H190V16H158V28H182V44H158V56H190V72H142V0ZM16 104H22C30.8366 104 38 111.163 38 120V128C38 136.837 30.8366 144 22 144H16V104ZM0 160V88H22C39.6731 88 54 102.327 54 120V128C54 145.673 39.6731 160 22 160H0ZM98 144C109.046 144 118 135.046 118 124C118 112.954 109.046 104 98 104C86.9543 104 78 112.954 78 124C78 135.046 86.9543 144 98 144ZM98 160C117.882 160 134 143.882 134 124C134 104.118 117.882 88 98 88C78.1178 88 62 104.118 62 124C62 143.882 78.1178 160 98 160ZM142 88H190V104H158V116H182V132H158V144H190V160H142V88ZM38 45V16H16V0H54V45C54 59.9117 41.9117 72 27 72C12.0883 72 0 59.9117 0 45V40H16V45C16 51.0751 20.9249 56 27 56C33.0751 56 38 51.0751 38 45Z" fill="#000066"/>
<path d="M98 0C117.882 0 134 16.1177 134 36C134 55.8823 117.882 72 98 72C78.1177 72 62 55.8823 62 36C62 16.1177 78.1177 0 98 0ZM98 8C82.536 8 70 20.536 70 36C70 51.464 82.536 64 98 64C113.464 64 126 51.464 126 36C126 20.536 113.464 8 98 8ZM118.023 45.1113C116.936 47.5009 115.427 49.6864 113.557 51.5566C110.826 54.2872 107.424 56.2505 103.694 57.25L102.658 53.3867C105.71 52.5689 108.493 50.9618 110.728 48.7275C112.35 47.1053 113.638 45.1925 114.537 43.0986L118.023 45.1113ZM94 27L89 32L94 37L91 40L86 35L81 40L78 37L83 32L78 27L81 24L86 29L91 24L94 27ZM119.192 34.1211H100.808V29.8789H119.192V34.1211Z" fill="#000066"/>
</svg>
