<svg width="120" height="16" viewBox="0 0 120 16" fill="none" xmlns="http://www.w3.org/2000/svg">
<g clip-path="url(#clip0_606_22)">
<rect x="50" width="16" height="16" fill="black"/>
<rect x="52.6667" y="2.66667" width="10.6667" height="10.6667" fill="white"/>
<path d="M78.4297 14L77.7578 10.9453L76.8516 7.08594H76.7969L75.2031 14H72.6406L70.1562 5.26562H72.5312L73.5391 9.13281C73.7005 9.82552 73.8646 10.7812 74.0312 12H74.0781C74.099 11.6042 74.1901 10.9766 74.3516 10.1172L74.4766 9.45312L75.5547 5.26562H78.1797L79.2031 9.45312C79.224 9.56771 79.2552 9.73698 79.2969 9.96094C79.3438 10.1849 79.388 10.4245 79.4297 10.6797C79.4714 10.9297 79.5078 11.1771 79.5391 11.4219C79.5755 11.6615 79.5964 11.8542 79.6016 12H79.6484C79.6953 11.625 79.7786 11.112 79.8984 10.4609C80.0182 9.80469 80.1042 9.36198 80.1562 9.13281L81.2031 5.26562H83.5391L81.0234 14H78.4297Z" fill="black"/>
<path d="M93.0156 14H90.6328V8.89844C90.6328 7.63802 90.1641 7.00781 89.2266 7.00781C88.5599 7.00781 88.0781 7.23438 87.7812 7.6875C87.4844 8.14062 87.3359 8.875 87.3359 9.89062V14H84.9531V1.84375H87.3359V4.32031C87.3359 4.51302 87.3177 4.96615 87.2812 5.67969L87.2266 6.38281H87.3516C87.8828 5.52865 88.7266 5.10156 89.8828 5.10156C90.9089 5.10156 91.6875 5.3776 92.2188 5.92969C92.75 6.48177 93.0156 7.27344 93.0156 8.30469V14Z" fill="black"/>
<path d="M95.3672 3.00781C95.3672 2.23177 95.7995 1.84375 96.6641 1.84375C97.5286 1.84375 97.9609 2.23177 97.9609 3.00781C97.9609 3.3776 97.8516 3.66667 97.6328 3.875C97.4193 4.07812 97.0964 4.17969 96.6641 4.17969C95.7995 4.17969 95.3672 3.78906 95.3672 3.00781ZM97.8516 14H95.4688V5.26562H97.8516V14Z" fill="black"/>
<path d="M104.039 12.2578C104.456 12.2578 104.956 12.1667 105.539 11.9844V13.7578C104.945 14.0234 104.216 14.1562 103.352 14.1562C102.398 14.1562 101.703 13.9167 101.266 13.4375C100.833 12.9531 100.617 12.2292 100.617 11.2656V7.05469H99.4766V6.04688L100.789 5.25L101.477 3.40625H103V5.26562H105.445V7.05469H103V11.2656C103 11.6042 103.094 11.8542 103.281 12.0156C103.474 12.1771 103.727 12.2578 104.039 12.2578Z" fill="black"/>
<path d="M110.93 6.79688C110.424 6.79688 110.029 6.95833 109.742 7.28125C109.456 7.59896 109.292 8.05208 109.25 8.64062H112.594C112.583 8.05208 112.43 7.59896 112.133 7.28125C111.836 6.95833 111.435 6.79688 110.93 6.79688ZM111.266 14.1562C109.859 14.1562 108.76 13.7682 107.969 12.9922C107.177 12.2161 106.781 11.1172 106.781 9.69531C106.781 8.23177 107.146 7.10156 107.875 6.30469C108.609 5.5026 109.622 5.10156 110.914 5.10156C112.148 5.10156 113.109 5.45312 113.797 6.15625C114.484 6.85938 114.828 7.83073 114.828 9.07031V10.2266H109.195C109.221 10.9036 109.422 11.4323 109.797 11.8125C110.172 12.1927 110.698 12.3828 111.375 12.3828C111.901 12.3828 112.398 12.3281 112.867 12.2188C113.336 12.1094 113.826 11.9349 114.336 11.6953V13.5391C113.919 13.7474 113.474 13.901 113 14C112.526 14.1042 111.948 14.1562 111.266 14.1562Z" fill="black"/>
<path d="M118.984 12.1406L119.102 12.3203C118.831 13.3724 118.372 14.6198 117.727 16.0625H116.008C116.346 14.6771 116.609 13.3698 116.797 12.1406H118.984ZM116.43 6.42969C116.43 5.99219 116.547 5.66146 116.781 5.4375C117.016 5.21354 117.357 5.10156 117.805 5.10156C118.237 5.10156 118.57 5.21615 118.805 5.44531C119.044 5.67448 119.164 6.0026 119.164 6.42969C119.164 6.85156 119.042 7.17969 118.797 7.41406C118.557 7.64323 118.227 7.75781 117.805 7.75781C117.367 7.75781 117.029 7.64323 116.789 7.41406C116.549 7.1849 116.43 6.85677 116.43 6.42969Z" fill="black"/>
<path d="M6.79688 5.10156C7.82812 5.10156 8.63542 5.50521 9.21875 6.3125C9.80208 7.11458 10.0938 8.21615 10.0938 9.61719C10.0938 11.0599 9.79167 12.1771 9.1875 12.9688C8.58854 13.7604 7.77083 14.1562 6.73438 14.1562C5.70833 14.1562 4.90365 13.7839 4.32031 13.0391H4.15625L3.75781 14H1.9375V1.84375H4.32031V4.67188C4.32031 5.03125 4.28906 5.60677 4.22656 6.39844H4.32031C4.8776 5.53385 5.70312 5.10156 6.79688 5.10156ZM6.03125 7.00781C5.44271 7.00781 5.01302 7.1901 4.74219 7.55469C4.47135 7.91406 4.33073 8.51042 4.32031 9.34375V9.60156C4.32031 10.5391 4.45833 11.2109 4.73438 11.6172C5.01562 12.0234 5.45833 12.2266 6.0625 12.2266C6.55208 12.2266 6.9401 12.0026 7.22656 11.5547C7.51823 11.1016 7.66406 10.4453 7.66406 9.58594C7.66406 8.72656 7.51823 8.08333 7.22656 7.65625C6.9349 7.22396 6.53646 7.00781 6.03125 7.00781Z" fill="black"/>
<path d="M16.9375 5.10156C17.2604 5.10156 17.5286 5.125 17.7422 5.17188L17.5625 7.40625C17.3698 7.35417 17.1354 7.32812 16.8594 7.32812C16.099 7.32812 15.5052 7.52344 15.0781 7.91406C14.6562 8.30469 14.4453 8.85156 14.4453 9.55469V14H12.0625V5.26562H13.8672L14.2188 6.73438H14.3359C14.6068 6.24479 14.9714 5.85156 15.4297 5.55469C15.8932 5.2526 16.3958 5.10156 16.9375 5.10156Z" fill="black"/>
<path d="M22.9453 6.79688C22.4401 6.79688 22.0443 6.95833 21.7578 7.28125C21.4714 7.59896 21.3073 8.05208 21.2656 8.64062H24.6094C24.599 8.05208 24.4453 7.59896 24.1484 7.28125C23.8516 6.95833 23.4505 6.79688 22.9453 6.79688ZM23.2812 14.1562C21.875 14.1562 20.776 13.7682 19.9844 12.9922C19.1927 12.2161 18.7969 11.1172 18.7969 9.69531C18.7969 8.23177 19.1615 7.10156 19.8906 6.30469C20.625 5.5026 21.638 5.10156 22.9297 5.10156C24.1641 5.10156 25.125 5.45312 25.8125 6.15625C26.5 6.85938 26.8438 7.83073 26.8438 9.07031V10.2266H21.2109C21.237 10.9036 21.4375 11.4323 21.8125 11.8125C22.1875 12.1927 22.7135 12.3828 23.3906 12.3828C23.9167 12.3828 24.4141 12.3281 24.8828 12.2188C25.3516 12.1094 25.8411 11.9349 26.3516 11.6953V13.5391C25.9349 13.7474 25.4896 13.901 25.0156 14C24.5417 14.1042 23.9635 14.1562 23.2812 14.1562Z" fill="black"/>
<path d="M32.4609 12.2578C32.8776 12.2578 33.3776 12.1667 33.9609 11.9844V13.7578C33.3672 14.0234 32.638 14.1562 31.7734 14.1562C30.8203 14.1562 30.125 13.9167 29.6875 13.4375C29.2552 12.9531 29.0391 12.2292 29.0391 11.2656V7.05469H27.8984V6.04688L29.2109 5.25L29.8984 3.40625H31.4219V5.26562H33.8672V7.05469H31.4219V11.2656C31.4219 11.6042 31.5156 11.8542 31.7031 12.0156C31.8958 12.1771 32.1484 12.2578 32.4609 12.2578Z" fill="black"/>
<path d="M39.4141 12.2578C39.8307 12.2578 40.3307 12.1667 40.9141 11.9844V13.7578C40.3203 14.0234 39.5911 14.1562 38.7266 14.1562C37.7734 14.1562 37.0781 13.9167 36.6406 13.4375C36.2083 12.9531 35.9922 12.2292 35.9922 11.2656V7.05469H34.8516V6.04688L36.1641 5.25L36.8516 3.40625H38.375V5.26562H40.8203V7.05469H38.375V11.2656C38.375 11.6042 38.4688 11.8542 38.6562 12.0156C38.849 12.1771 39.1016 12.2578 39.4141 12.2578Z" fill="black"/>
<path d="M42.3516 12.8828C42.3516 12.4453 42.4688 12.1146 42.7031 11.8906C42.9375 11.6667 43.2786 11.5547 43.7266 11.5547C44.1589 11.5547 44.4922 11.6693 44.7266 11.8984C44.9661 12.1276 45.0859 12.4557 45.0859 12.8828C45.0859 13.2943 44.9661 13.6198 44.7266 13.8594C44.487 14.0938 44.1536 14.2109 43.7266 14.2109C43.2891 14.2109 42.9505 14.0964 42.7109 13.8672C42.4714 13.6328 42.3516 13.3047 42.3516 12.8828ZM42.3516 6.42969C42.3516 5.99219 42.4688 5.66146 42.7031 5.4375C42.9375 5.21354 43.2786 5.10156 43.7266 5.10156C44.1589 5.10156 44.4922 5.21615 44.7266 5.44531C44.9661 5.67448 45.0859 6.0026 45.0859 6.42969C45.0859 6.85156 44.9635 7.17969 44.7188 7.41406C44.4792 7.64323 44.1484 7.75781 43.7266 7.75781C43.2891 7.75781 42.9505 7.64323 42.7109 7.41406C42.4714 7.1849 42.3516 6.85677 42.3516 6.42969Z" fill="black"/>
</g>
<defs>
<clipPath id="clip0_606_22">
<rect width="120" height="16" fill="white"/>
</clipPath>
</defs>
</svg>
