<svg width="320" height="56" viewBox="0 0 320 56" fill="none" xmlns="http://www.w3.org/2000/svg">
<path fill-rule="evenodd" clip-rule="evenodd" d="M0 0H197V4H0V0ZM284.216 34.3594C284.325 34.8594 284.38 35.4141 284.38 36.0234C284.38 36.7578 284.263 37.4141 284.028 37.9922C283.794 38.5703 283.403 39.0312 282.856 39.375C282.325 39.7188 281.606 39.8906 280.7 39.8906C279.903 39.8906 279.192 39.7891 278.567 39.5859C277.958 39.3672 277.442 39.0469 277.021 38.625C276.599 38.1875 276.286 37.6094 276.083 36.8906C275.88 36.1562 275.778 35.2734 275.778 34.2422H268.911C268.911 36.1797 269.216 37.8594 269.825 39.2812C270.435 40.6875 271.271 41.8516 272.333 42.7734C273.411 43.6797 274.653 44.3594 276.06 44.8125C277.466 45.25 278.958 45.4688 280.536 45.4688C282.161 45.4688 283.63 45.2422 284.942 44.7891C286.271 44.3359 287.403 43.6953 288.341 42.8672C289.278 42.0234 289.989 41.0234 290.474 39.8672C290.974 38.6953 291.224 37.3984 291.224 35.9766C291.224 34.5391 291.021 33.2578 290.614 32.1328C290.208 31.0078 289.606 30 288.81 29.1094C288.013 28.2031 287.021 27.3906 285.833 26.6719C284.646 25.9375 283.278 25.2656 281.731 24.6562C280.935 24.3438 280.2 24.0234 279.528 23.6953C278.872 23.3672 278.302 23.0312 277.817 22.6875C277.333 22.3281 276.95 21.9297 276.669 21.4922C276.403 21.0391 276.271 20.5312 276.271 19.9688C276.271 19.2188 276.403 18.5469 276.669 17.9531C276.95 17.3438 277.372 16.8672 277.935 16.5234C278.513 16.1641 279.239 15.9844 280.114 15.9844C281.052 15.9844 281.817 16.1953 282.411 16.6172C283.005 17.0391 283.435 17.625 283.7 18.375C283.981 19.1094 284.122 19.9609 284.122 20.9297H290.966C290.966 18.8828 290.521 17.0703 289.63 15.4922C288.755 13.9141 287.513 12.6719 285.903 11.7656C284.31 10.8594 282.419 10.4062 280.231 10.4062C278.622 10.4062 277.161 10.6328 275.849 11.0859C274.552 11.5391 273.419 12.1875 272.45 13.0312C271.481 13.8594 270.731 14.8594 270.2 16.0312C269.685 17.2031 269.427 18.5078 269.427 19.9453C269.427 21.4141 269.7 22.6953 270.247 23.7891C270.81 24.8672 271.567 25.8047 272.521 26.6016C273.474 27.3984 274.544 28.1016 275.731 28.7109C276.919 29.3047 278.146 29.8672 279.411 30.3984C280.474 30.8516 281.333 31.2891 281.989 31.7109C282.661 32.1328 283.169 32.5547 283.513 32.9766C283.872 33.3984 284.106 33.8594 284.216 34.3594ZM12.4055 32.9766H7.62427V45H0.780518V10.875H12.4055C14.7024 10.875 16.679 11.3594 18.3352 12.3281C19.9915 13.2969 21.2571 14.6328 22.1321 16.3359C23.0227 18.0234 23.468 19.9609 23.468 22.1484C23.468 24.3516 23.0227 26.2656 22.1321 27.8906C21.2571 29.5 19.9915 30.75 18.3352 31.6406C16.679 32.5312 14.7024 32.9766 12.4055 32.9766ZM7.62427 16.5703V27.2812H12.4055C13.3743 27.2812 14.1633 27.0625 14.7727 26.625C15.3977 26.1875 15.8508 25.5859 16.1321 24.8203C16.4133 24.0391 16.554 23.1641 16.554 22.1953C16.554 21.2109 16.4055 20.2969 16.1086 19.4531C15.8274 18.5938 15.3821 17.8984 14.7727 17.3672C14.179 16.8359 13.3899 16.5703 12.4055 16.5703H7.62427ZM40.3858 10.875H38.6748H35.792H34.1514L23.4873 45H30.7295L32.5696 37.9688H42.0026L43.8545 45H51.1436L40.3858 10.875ZM40.5026 32.2734H34.0601L37.2711 20.004L40.5026 32.2734ZM62.9754 26.25L57.7723 10.875H50.3191L59.5066 32.6016V45H66.4207V32.6016L75.6082 10.875H68.1316L62.9754 26.25ZM86.3385 10.875H89.0572L96.0181 34.2188L102.956 10.875H105.651H108.276H111.417V45H104.807V33.375L105.252 21.5094L98.5728 45H93.44L86.8314 23.3285L87.2291 33.375V45H80.5963V10.875H83.0338H86.3385ZM138.412 45V39.3281H125.709V30.2109H136.42V24.7031H125.709V16.5703H138.366V10.875H125.709H123.577H118.842V45H123.577H125.709H138.412ZM168.104 10.875V45H161.471L150.76 23.6484V45H144.244V10.875H150.783L161.588 32.4609V10.875H168.104ZM188.35 45V16.5703H196.834V10.875H188.35H181.529H173.209V16.5703H181.529V45H188.35ZM214.502 10.875H212.791H209.908H208.267L197.603 45H204.845L206.686 37.9688H216.119L217.97 45H225.259L214.502 10.875ZM214.618 32.2734H208.176L211.387 20.004L214.618 32.2734ZM249.279 45V39.3281H237.208V10.875H230.341V45H235.099H237.208H249.279ZM262.259 10.875V45H255.439V10.875H262.259ZM311.282 16.5703V45H304.462V16.5703H296.141V10.875H304.462H311.282H319.766V16.5703H311.282ZM320 52H80V56H320V52Z" fill="white"/>
</svg>
