<svg width="352" height="64" viewBox="0 0 352 64" fill="none" xmlns="http://www.w3.org/2000/svg">
<path d="M46.1422 48.9703L40.485 54.6276L31.9996 46.1422L15.0299 63.1129L9.37268 57.4557L31.9996 34.8287L46.1422 48.9703ZM54.6276 23.5143L46.1422 31.9996L63.1129 48.9703L57.4557 54.6276L34.8287 31.9996L48.9703 17.858L54.6276 23.5143ZM29.1715 31.9996L15.0299 46.1422L9.37268 40.485L17.858 31.9996L0.887329 15.0299L6.54456 9.37268L29.1715 31.9996ZM54.6276 6.54456L31.9996 29.1715L17.858 15.0299L23.5143 9.37268L31.9996 17.858L48.9703 0.887329L54.6276 6.54456Z" fill="black"/>
<path d="M88.6689 23.3604C90.5089 23.3604 92.1757 23.8265 93.6689 24.7598C95.1622 25.693 96.3352 27.0266 97.1885 28.7598C98.0685 30.4931 98.5088 32.5065 98.5088 34.7998C98.5088 37.0931 98.0685 39.1199 97.1885 40.8799C96.3352 42.6131 95.1622 43.9599 93.6689 44.9199C92.1757 45.8532 90.5089 46.3203 88.6689 46.3203C87.1224 46.3203 85.7488 46.0003 84.5488 45.3604C83.3755 44.7204 82.4557 43.8932 81.7891 42.8799V56.6396H74.9482V23.6797H81.7891V26.8398C82.4557 25.8 83.3756 24.9603 84.5488 24.3203C85.7222 23.6803 87.0956 23.3604 88.6689 23.3604ZM139.525 37.6396L144.646 23.6797H152.046L138.046 56.5996H130.686L135.806 45.2402L126.726 23.6797H134.365L139.525 37.6396ZM110.577 23.3604C112.15 23.3604 113.524 23.6803 114.697 24.3203C115.897 24.9603 116.817 25.8 117.457 26.8398V23.6797H124.297V46H117.457V42.8398C116.79 43.8798 115.857 44.7204 114.657 45.3604C113.484 46.0003 112.11 46.3203 110.537 46.3203C108.724 46.3203 107.07 45.8532 105.577 44.9199C104.084 43.9599 102.898 42.6132 102.018 40.8799C101.164 39.1199 100.737 37.0931 100.737 34.7998C100.737 32.5065 101.164 30.4931 102.018 28.7598C102.898 27.0266 104.084 25.693 105.577 24.7598C107.07 23.8265 108.737 23.3604 110.577 23.3604ZM206.783 23.3604C208.943 23.3604 210.863 23.8131 212.543 24.7197C214.223 25.6263 215.53 26.9197 216.463 28.5996C217.423 30.2796 217.902 32.2405 217.902 34.4805C217.902 35.1203 217.863 35.7873 217.783 36.4805H202.303C202.409 37.8669 202.85 38.9331 203.623 39.6797C204.423 40.3997 205.396 40.7598 206.543 40.7598C208.25 40.7597 209.436 40.0396 210.103 38.5996H217.383C217.01 40.0662 216.329 41.3863 215.343 42.5596C214.383 43.7329 213.17 44.6537 211.703 45.3203C210.237 45.9869 208.596 46.3203 206.783 46.3203C204.597 46.3203 202.649 45.8533 200.942 44.9199C199.236 43.9866 197.902 42.6531 196.942 40.9199C195.982 39.1866 195.503 37.1597 195.503 34.8398C195.503 32.5199 195.969 30.4931 196.902 28.7598C197.862 27.0265 199.196 25.6931 200.902 24.7598C202.609 23.8264 204.57 23.3604 206.783 23.3604ZM273.194 23.3604C274.768 23.3604 276.141 23.6803 277.314 24.3203C278.514 24.9603 279.434 25.8 280.074 26.8398V23.6797H286.914V46H280.074V42.8398C279.408 43.8798 278.474 44.7204 277.274 45.3604C276.101 46.0003 274.728 46.3203 273.154 46.3203C271.341 46.3203 269.688 45.8532 268.194 44.9199C266.701 43.9599 265.515 42.6132 264.635 40.8799C263.781 39.1199 263.354 37.0931 263.354 34.7998C263.355 32.5065 263.781 30.4931 264.635 28.7598C265.515 27.0266 266.701 25.693 268.194 24.7598C269.688 23.8265 271.354 23.3604 273.194 23.3604ZM324.057 23.3604C326.857 23.3604 329.056 24.0538 330.656 25.4404C332.283 26.8271 333.217 28.6666 333.457 30.96H327.137C327.03 30.1867 326.683 29.5734 326.097 29.1201C325.537 28.6668 324.79 28.4404 323.856 28.4404C323.057 28.4405 322.443 28.6 322.017 28.9199C321.59 29.2133 321.377 29.6268 321.377 30.1602C321.377 30.8001 321.71 31.2796 322.377 31.5996C323.07 31.9195 324.137 32.2396 325.576 32.5596C327.229 32.9862 328.576 33.4132 329.616 33.8398C330.656 34.2398 331.564 34.9065 332.337 35.8398C333.137 36.7464 333.549 37.9731 333.576 39.5195C333.576 40.8261 333.204 42.0001 332.457 43.04C331.737 44.0534 330.684 44.8538 329.297 45.4404C327.937 46.0271 326.349 46.3203 324.536 46.3203C322.59 46.3203 320.857 45.9868 319.337 45.3203C317.817 44.6536 316.616 43.7463 315.736 42.5996C314.856 41.4264 314.363 40.1195 314.257 38.6797H321.017C321.097 39.453 321.457 40.0796 322.097 40.5596C322.737 41.0396 323.524 41.2803 324.457 41.2803C325.31 41.2802 325.964 41.1197 326.417 40.7998C326.897 40.4533 327.137 40.0135 327.137 39.4805C327.137 38.8405 326.803 38.3734 326.137 38.0801C325.47 37.7601 324.39 37.4134 322.896 37.04C321.297 36.6667 319.963 36.2799 318.896 35.8799C317.83 35.4532 316.91 34.7999 316.137 33.9199C315.363 33.0133 314.977 31.8001 314.977 30.2803C314.977 29.0003 315.323 27.8398 316.017 26.7998C316.737 25.7332 317.777 24.8936 319.137 24.2803C320.523 23.6669 322.163 23.3604 324.057 23.3604ZM182.999 23.4404C185.772 23.4404 187.972 24.2801 189.599 25.96C191.252 27.64 192.079 29.9733 192.079 32.96V46H185.279V33.8799C185.279 32.4399 184.892 31.3329 184.119 30.5596C183.372 29.7597 182.332 29.3604 180.999 29.3604C179.666 29.3604 178.612 29.7597 177.839 30.5596C177.092 31.3329 176.719 32.4399 176.719 33.8799V46H169.919V33.8799C169.919 32.4399 169.532 31.3329 168.759 30.5596C168.012 29.7598 166.972 29.3604 165.639 29.3604C164.306 29.3604 163.253 29.7599 162.479 30.5596C161.733 31.3329 161.359 32.4399 161.359 33.8799V46H154.52V23.6797H161.359V26.4805C162.053 25.5472 162.959 24.8136 164.079 24.2803C165.199 23.7203 166.466 23.4404 167.879 23.4404C169.559 23.4404 171.053 23.7995 172.359 24.5195C173.693 25.2395 174.733 26.2663 175.479 27.5996C176.253 26.3732 177.306 25.3728 178.639 24.5996C179.972 23.8263 181.426 23.4404 182.999 23.4404ZM235.111 23.4404C237.725 23.4404 239.805 24.2934 241.352 26C242.925 27.68 243.711 30.0001 243.711 32.96V46H236.911V33.8799C236.911 32.3867 236.524 31.227 235.751 30.4004C234.978 29.5737 233.938 29.1602 232.631 29.1602C231.324 29.1602 230.285 29.5738 229.512 30.4004C228.738 31.227 228.352 32.3866 228.352 33.8799V46H221.512V23.6797H228.352V26.6396C229.045 25.6532 229.978 24.8802 231.151 24.3203C232.325 23.7336 233.645 23.4404 235.111 23.4404ZM256.385 23.6797H260.864V29.3604H256.385V38.3203C256.385 38.9867 256.544 39.4665 256.864 39.7598C257.184 40.053 257.717 40.2001 258.464 40.2002H260.904V46H257.425C254.945 46 253.011 45.4002 251.624 44.2002C250.237 42.9736 249.544 40.9867 249.544 38.2402V29.3604H246.824V23.6797H249.544V18.2402H256.385V23.6797ZM298.703 46H291.863V16.4004H298.703V46ZM310.5 46H303.659V23.6797H310.5V46ZM345.682 23.6797H350.161V29.3604H345.682V38.3203C345.682 38.9867 345.841 39.4665 346.161 39.7598C346.481 40.0531 347.015 40.2002 347.762 40.2002H350.201V46H346.722C344.242 46 342.308 45.4002 340.921 44.2002C339.534 42.9736 338.841 40.9867 338.841 38.2402V29.3604H336.121V23.6797H338.841V18.2402H345.682V23.6797ZM86.6289 29.3203C85.2689 29.3203 84.1084 29.8131 83.1484 30.7998C82.2152 31.7864 81.749 33.1333 81.749 34.8398C81.749 36.5464 82.2152 37.8932 83.1484 38.8799C84.1084 39.8665 85.2689 40.3604 86.6289 40.3604C87.9888 40.3603 89.1485 39.8664 90.1084 38.8799C91.0684 37.8665 91.5488 36.5065 91.5488 34.7998C91.5488 33.0932 91.0684 31.7598 90.1084 30.7998C89.1751 29.8134 88.0154 29.3204 86.6289 29.3203ZM112.577 29.3203C111.217 29.3203 110.058 29.8134 109.098 30.7998C108.164 31.7598 107.697 33.0932 107.697 34.7998C107.697 36.5065 108.164 37.8665 109.098 38.8799C110.058 39.8664 111.217 40.3603 112.577 40.3604C113.937 40.3604 115.084 39.8665 116.018 38.8799C116.977 37.8932 117.457 36.5464 117.457 34.8398C117.457 33.1333 116.977 31.7864 116.018 30.7998C115.084 29.8131 113.937 29.3203 112.577 29.3203ZM275.194 29.3203C273.835 29.3203 272.675 29.8134 271.715 30.7998C270.782 31.7598 270.314 33.0932 270.314 34.7998C270.314 36.5065 270.782 37.8665 271.715 38.8799C272.675 39.8664 273.834 40.3603 275.194 40.3604C276.554 40.3604 277.701 39.8665 278.635 38.8799C279.595 37.8932 280.074 36.5464 280.074 34.8398C280.074 33.1333 279.595 31.7864 278.635 30.7998C277.701 29.8131 276.554 29.3203 275.194 29.3203ZM206.703 28.8398C205.557 28.8398 204.583 29.1733 203.783 29.8398C203.01 30.5065 202.529 31.4532 202.343 32.6797H210.902C210.902 31.5066 210.503 30.5731 209.703 29.8799C208.903 29.1866 207.903 28.8399 206.703 28.8398ZM307.1 13.96C308.273 13.96 309.233 14.3201 309.979 15.04C310.753 15.7333 311.14 16.6132 311.14 17.6797C311.14 18.7197 310.753 19.6003 309.979 20.3203C309.233 21.0135 308.273 21.3604 307.1 21.3604C305.9 21.3603 304.913 21.0136 304.14 20.3203C303.393 19.6003 303.02 18.7197 303.02 17.6797C303.02 16.6132 303.393 15.7333 304.14 15.04C304.913 14.32 305.9 13.96 307.1 13.96Z" fill="black"/>
</svg>
